<svg width="24" height="24" viewBox="0 0 24 24" fill="none" xmlns="http://www.w3.org/2000/svg">
<path d="M18.6386 5.06675L17.9757 5.75431L18.957 6.7735V8.74568H20.8276V19.5783C20.8276 20.8889 20.0233 21.0401 19.4189 21.0401C18.292 21.0401 18.0496 19.8906 18.0124 19.66V11.5136H14.6539V1.77739C14.6539 0.795162 13.888 0 12.9418 0H3.71324C2.76705 0 2 0.794059 2 1.77739V22.2215C2 23.2032 2.76705 24 3.71324 24H12.9418C13.888 24 14.6539 23.2043 14.6539 22.2215V12.4853H17.0747V19.6959L17.0795 19.7593C17.1794 20.5385 17.7971 22.0113 19.4189 22.0113C20.8882 22.0113 21.7647 21.1019 21.7647 19.5767V8.3103L18.6386 5.06675ZM19.4253 8.25788V7.2591L20.3874 8.25788H19.4253ZM12.7791 11.1886H4.03165V2.10793H12.7796L12.7791 11.1886Z" fill="black"/>
</svg>
