<svg width="24" height="24" viewBox="0 0 24 24" fill="none" xmlns="http://www.w3.org/2000/svg">
<path fill-rule="evenodd" clip-rule="evenodd" d="M12 0C7.02938 0 3 4.02938 3 9C3 11.1292 3.93825 13.0016 4.97662 14.625L11.388 23.6835C11.5286 23.8822 11.757 24 12 24C12.243 24 12.4714 23.8822 12.612 23.6835L19.0234 14.625C20.0156 13.2893 21 11.1292 21 9C21 4.02938 16.9706 0 12 0ZM13.9225 6.343L16.7466 6.17654C16.6114 5.1963 16.1383 4.42182 15.3273 3.85309C14.5211 3.28436 13.4156 3 12.0109 3C11.0599 3 10.2295 3.13409 9.51991 3.40227C8.81511 3.67045 8.2672 4.05191 7.87618 4.54666C7.48998 5.0414 7.29689 5.63094 7.29689 6.31526C7.29689 7.11055 7.55998 7.76482 8.08617 8.27806C8.61719 8.7913 9.42578 9.15196 10.5119 9.36003L12.4381 9.72762C12.9208 9.82009 13.2781 9.95418 13.5098 10.1299C13.7415 10.301 13.8598 10.5206 13.8646 10.7888C13.8598 11.1078 13.6908 11.3691 13.3577 11.5725C13.0294 11.7713 12.595 11.8707 12.0543 11.8707C11.504 11.8707 11.0526 11.7598 10.7002 11.5378C10.3478 11.3113 10.1258 10.983 10.034 10.553L7 10.7055C7.14965 11.7228 7.65894 12.5273 8.52788 13.1192C9.40164 13.7064 10.5747 14 12.0471 14C13.0126 14 13.8646 13.8544 14.6032 13.5631C15.3466 13.2671 15.9307 12.8556 16.3555 12.3285C16.7852 11.8014 17 11.1887 17 10.4905C17 9.72299 16.7345 9.1034 16.2035 8.63178C15.6725 8.16015 14.8663 7.81799 13.7849 7.6053L11.7719 7.2169C11.2554 7.11055 10.8909 6.96952 10.6785 6.79382C10.4661 6.61812 10.3599 6.40311 10.3599 6.1488C10.3599 5.82976 10.524 5.57545 10.8523 5.38588C11.1805 5.19168 11.5836 5.09458 12.0615 5.09458C12.4188 5.09458 12.7253 5.15238 12.9812 5.26797C13.2419 5.37894 13.4518 5.52921 13.6112 5.71879C13.7705 5.90374 13.8742 6.11181 13.9225 6.343Z" fill="black"/>
</svg>
